<svg width="155" height="27" viewBox="0 0 155 27" fill="none" xmlns="http://www.w3.org/2000/svg">
<path d="M14.17 21L7.63 11.64L5.08 14.28V21H0.52V-1.43051e-06H5.08V3.24C5.08 4.14 4.98 4.94 4.78 5.64C4.58 6.34 4.37 6.87 4.15 7.23C3.93 7.59 3.63 7.98 3.25 8.4L4.39 9.51L12.76 -1.43051e-06H18.88L10.75 8.4L19.9 21H14.17ZM21.6032 21V-1.43051e-06H25.8632V3.18C25.8632 5.58 25.2332 7.67 23.9732 9.45H25.8332C26.2332 8.25 26.8232 7.3 27.6032 6.6C28.3832 5.9 29.3232 5.55 30.4232 5.55C32.0432 5.55 33.2932 6.05 34.1732 7.05C35.0732 8.03 35.5232 9.37 35.5232 11.07V21H31.2632V11.88C31.2632 10 30.4632 9.06 28.8632 9.06C27.9632 9.06 27.2932 9.33 26.8532 9.87C26.1932 10.67 25.8632 12.01 25.8632 13.89V21H21.6032ZM38.4836 13.5C38.4836 11.14 39.2236 9.23 40.7036 7.77C42.1836 6.29 44.0736 5.55 46.3736 5.55C48.6936 5.55 50.5836 6.29 52.0436 7.77C53.5236 9.23 54.2636 11.14 54.2636 13.5C54.2636 15.9 53.5336 17.83 52.0736 19.29C50.6136 20.75 48.7136 21.48 46.3736 21.48C44.1136 21.48 42.2336 20.73 40.7336 19.23C39.2336 17.71 38.4836 15.8 38.4836 13.5ZM48.8936 16.95C49.5136 16.17 49.8236 15.04 49.8236 13.56C49.8236 12.08 49.5136 10.94 48.8936 10.14C48.2936 9.32 47.4536 8.91 46.3736 8.91C45.2936 8.91 44.4436 9.32 43.8236 10.14C43.2236 10.94 42.9236 12.08 42.9236 13.56C42.9236 15.04 43.2236 16.17 43.8236 16.95C44.4436 17.71 45.2936 18.09 46.3736 18.09C47.4536 18.09 48.2936 17.71 48.8936 16.95ZM57.4647 3.93V-1.43051e-06H61.9047V3.93H57.4647ZM54.1947 26.85V23.46H56.2947C56.7747 23.46 57.1147 23.35 57.3147 23.13C57.5147 22.93 57.6147 22.6 57.6147 22.14V6H61.8147V22.92C61.8147 24.14 61.4747 25.1 60.7947 25.8C60.1347 26.5 59.2147 26.85 58.0347 26.85H54.1947ZM64.9387 13.5C64.9387 11.14 65.6787 9.23 67.1587 7.77C68.6387 6.29 70.5287 5.55 72.8287 5.55C75.1487 5.55 77.0387 6.29 78.4987 7.77C79.9787 9.23 80.7187 11.14 80.7187 13.5C80.7187 15.9 79.9887 17.83 78.5287 19.29C77.0687 20.75 75.1687 21.48 72.8287 21.48C70.5687 21.48 68.6887 20.73 67.1887 19.23C65.6887 17.71 64.9387 15.8 64.9387 13.5ZM75.3487 16.95C75.9687 16.17 76.2787 15.04 76.2787 13.56C76.2787 12.08 75.9687 10.94 75.3487 10.14C74.7487 9.32 73.9087 8.91 72.8287 8.91C71.7487 8.91 70.8987 9.32 70.2787 10.14C69.6787 10.94 69.3787 12.08 69.3787 13.56C69.3787 15.04 69.6787 16.17 70.2787 16.95C70.8987 17.71 71.7487 18.09 72.8287 18.09C73.9087 18.09 74.7487 17.71 75.3487 16.95Z" fill="#FF0000"/>
<path d="M83.8696 21V-1.43051e-06H91.3396L94.7896 10.23C95.2496 11.67 95.4996 13.97 95.5396 17.13H97.1596C97.1996 13.99 97.4696 11.69 97.9696 10.23L101.48 -1.43051e-06H108.68V21H104.12V12.66C104.12 9.7 104.85 6.51 106.31 3.09L104.63 2.43L98.2696 21H94.2196L87.9496 2.43L86.2696 3.09C87.7096 6.47 88.4296 9.66 88.4296 12.66V21H83.8696ZM111.843 13.5C111.843 11.14 112.583 9.23 114.063 7.77C115.543 6.29 117.433 5.55 119.733 5.55C122.053 5.55 123.943 6.29 125.403 7.77C126.883 9.23 127.623 11.14 127.623 13.5C127.623 15.9 126.893 17.83 125.433 19.29C123.973 20.75 122.073 21.48 119.733 21.48C117.473 21.48 115.593 20.73 114.093 19.23C112.593 17.71 111.843 15.8 111.843 13.5ZM122.253 16.95C122.873 16.17 123.183 15.04 123.183 13.56C123.183 12.08 122.873 10.94 122.253 10.14C121.653 9.32 120.813 8.91 119.733 8.91C118.653 8.91 117.803 9.32 117.183 10.14C116.583 10.94 116.283 12.08 116.283 13.56C116.283 15.04 116.583 16.17 117.183 16.95C117.803 17.71 118.653 18.09 119.733 18.09C120.813 18.09 121.653 17.71 122.253 16.95ZM130.824 3.93V-1.43051e-06H135.264V3.93H130.824ZM127.554 26.85V23.46H129.654C130.134 23.46 130.474 23.35 130.674 23.13C130.874 22.93 130.974 22.6 130.974 22.14V6H135.174V22.92C135.174 24.14 134.834 25.1 134.154 25.8C133.494 26.5 132.574 26.85 131.394 26.85H127.554ZM138.298 13.5C138.298 11.14 139.038 9.23 140.518 7.77C141.998 6.29 143.888 5.55 146.188 5.55C148.508 5.55 150.398 6.29 151.858 7.77C153.338 9.23 154.078 11.14 154.078 13.5C154.078 15.9 153.348 17.83 151.888 19.29C150.428 20.75 148.528 21.48 146.188 21.48C143.928 21.48 142.048 20.73 140.548 19.23C139.048 17.71 138.298 15.8 138.298 13.5ZM148.708 16.95C149.328 16.17 149.638 15.04 149.638 13.56C149.638 12.08 149.328 10.94 148.708 10.14C148.108 9.32 147.268 8.91 146.188 8.91C145.108 8.91 144.258 9.32 143.638 10.14C143.038 10.94 142.738 12.08 142.738 13.56C142.738 15.04 143.038 16.17 143.638 16.95C144.258 17.71 145.108 18.09 146.188 18.09C147.268 18.09 148.108 17.71 148.708 16.95Z" fill="black"/>
</svg>
